# WaveFront *.obj file (generated by Autodesk ATF)

mtllib (Forearm) A.C.R.A. - SE (Stand Example) v2_(Forearm) A.C.R.A. - SE (Stand Example) v2_Body1_(Forearm) A.C.R.A. - SE (Stand Example) v3_Body17.mtl

g Body17

v -116.958667 13.000000 10.715922
v -114.958667 13.000000 24.715922
v -114.958667 11.000000 24.715922
v -116.958667 11.000000 10.715922
v -119.958667 13.000000 10.715922
v -119.907555 13.000000 10.327693
v -119.757705 13.000000 9.965922
v -119.519327 13.000000 9.655262
v -119.208667 13.000000 9.416884
v -118.846895 13.000000 9.267033
v -118.458667 13.000000 9.215922
v -118.070438 13.000000 9.267033
v -117.708667 13.000000 9.416884
v -117.398007 13.000000 9.655262
v -117.159629 13.000000 9.965922
v -117.009778 13.000000 10.327693
v -117.009778 11.000000 10.327693
v -117.159629 11.000000 9.965922
v -117.398007 11.000000 9.655262
v -117.708667 11.000000 9.416884
v -118.070438 11.000000 9.267033
v -118.458667 11.000000 9.215922
v -118.846895 11.000000 9.267033
v -119.208667 11.000000 9.416884
v -119.519327 11.000000 9.655262
v -119.757705 11.000000 9.965922
v -119.907555 11.000000 10.327693
v -119.958667 11.000000 10.715922
v -119.958667 13.000000 24.715922
v -119.958667 11.000000 24.715922
vt 0.000000 0.000000 0.000000
vt 1.414214 0.000000 0.000000
vt 0.000000 0.200000 0.000000
vt 1.414214 0.200000 0.000000
vt -0.200000 -0.000000 0.000000
vt -0.000000 -0.000000 0.000000
vt -0.200000 0.039270 0.000000
vt 0.000000 0.039270 0.000000
vt -0.200000 0.078540 0.000000
vt -0.000000 0.078540 0.000000
vt -0.200000 0.117810 0.000000
vt 0.000000 0.117810 0.000000
vt -0.200000 0.157080 0.000000
vt 0.000000 0.157080 0.000000
vt -0.200000 0.196350 0.000000
vt -0.000000 0.196350 0.000000
vt -0.200000 0.235619 0.000000
vt -0.000000 0.235619 0.000000
vt -0.200000 0.274889 0.000000
vt -0.000000 0.274889 0.000000
vt -0.200000 0.314159 0.000000
vt -0.000000 0.314159 0.000000
vt -0.200000 0.353429 0.000000
vt -0.000000 0.353429 0.000000
vt -0.200000 0.392699 0.000000
vt -0.000000 0.392699 0.000000
vt -0.200000 0.431969 0.000000
vt -0.000000 0.431969 0.000000
vt -0.200000 0.471239 0.000000
vt -0.000000 0.471239 0.000000
vt 0.000000 0.000000 0.000000
vt 1.400000 0.000000 0.000000
vt 0.000000 0.200000 0.000000
vt 1.400000 0.200000 0.000000
vt 0.000000 0.000000 0.000000
vt 0.500000 0.000000 0.000000
vt -0.000000 0.200000 0.000000
vt 0.500000 0.200000 0.000000
vt 0.250000 0.775000 0.000000
vt -0.250000 0.775000 0.000000
vt 0.050000 -0.625000 0.000000
vt -0.100000 -0.775000 0.000000
vt -0.061177 -0.769889 0.000000
vt -0.250000 -0.625000 0.000000
vt -0.138823 -0.769889 0.000000
vt -0.175000 -0.754904 0.000000
vt -0.206066 -0.731066 0.000000
vt -0.229904 -0.700000 0.000000
vt -0.244889 -0.663823 0.000000
vt -0.025000 -0.754904 0.000000
vt 0.006066 -0.731066 0.000000
vt 0.029904 -0.700000 0.000000
vt 0.044889 -0.663823 0.000000
vt -0.250000 0.775000 0.000000
vt -0.050000 -0.625000 0.000000
vt 0.250000 0.775000 0.000000
vt 0.100000 -0.775000 0.000000
vt 0.250000 -0.625000 0.000000
vt 0.138823 -0.769889 0.000000
vt 0.175000 -0.754904 0.000000
vt -0.044889 -0.663823 0.000000
vt -0.029904 -0.700000 0.000000
vt -0.006066 -0.731066 0.000000
vt 0.025000 -0.754904 0.000000
vt 0.061177 -0.769889 0.000000
vt 0.206066 -0.731066 0.000000
vt 0.229904 -0.700000 0.000000
vt 0.244889 -0.663823 0.000000
vn 0.098995 0.000000 -0.014142
vn 0.098995 0.000000 -0.014142
vn 0.098995 0.000000 -0.014142
vn 0.098995 0.000000 -0.014142
vn -0.100000 0.000000 0.000000
vn -0.100000 0.000000 0.000000
vn -0.096593 0.000000 -0.025882
vn -0.096593 0.000000 -0.025882
vn -0.086603 0.000000 -0.050000
vn -0.086603 0.000000 -0.050000
vn -0.070711 0.000000 -0.070711
vn -0.070711 0.000000 -0.070711
vn -0.050000 0.000000 -0.086603
vn -0.050000 0.000000 -0.086603
vn -0.025882 0.000000 -0.096593
vn -0.025882 0.000000 -0.096593
vn 0.000000 0.000000 -0.100000
vn 0.000000 0.000000 -0.100000
vn 0.025882 0.000000 -0.096593
vn 0.025882 0.000000 -0.096593
vn 0.050000 0.000000 -0.086603
vn 0.050000 0.000000 -0.086603
vn 0.070711 0.000000 -0.070711
vn 0.070711 0.000000 -0.070711
vn 0.086603 0.000000 -0.050000
vn 0.086603 0.000000 -0.050000
vn 0.096593 0.000000 -0.025882
vn 0.096593 0.000000 -0.025882
vn 0.100000 0.000000 0.000000
vn 0.100000 0.000000 0.000000
vn -0.100000 0.000000 -0.000000
vn -0.100000 0.000000 -0.000000
vn -0.000000 0.000000 0.100000
vn -0.000000 0.000000 0.100000
vn -0.000000 0.000000 0.100000
vn -0.000000 0.000000 0.100000
vn 0.000000 -0.100000 0.000000
vn 0.000000 -0.100000 0.000000
vn 0.000000 -0.100000 0.000000
vn 0.000000 -0.100000 0.000000
vn 0.000000 -0.100000 0.000000
vn 0.000000 -0.100000 0.000000
vn 0.000000 -0.100000 0.000000
vn 0.000000 -0.100000 0.000000
vn 0.000000 -0.100000 0.000000
vn 0.000000 -0.100000 0.000000
vn 0.000000 -0.100000 0.000000
vn 0.000000 -0.100000 0.000000
vn 0.000000 -0.100000 0.000000
vn 0.000000 -0.100000 0.000000
vn 0.000000 -0.100000 0.000000
vn -0.000000 0.100000 -0.000000
vn -0.000000 0.100000 -0.000000
vn -0.000000 0.100000 -0.000000
vn -0.000000 0.100000 -0.000000
vn -0.000000 0.100000 -0.000000
vn -0.000000 0.100000 -0.000000
vn -0.000000 0.100000 -0.000000
vn -0.000000 0.100000 -0.000000
vn -0.000000 0.100000 -0.000000
vn -0.000000 0.100000 -0.000000
vn -0.000000 0.100000 -0.000000
vn -0.000000 0.100000 -0.000000
vn -0.000000 0.100000 -0.000000
vn -0.000000 0.100000 -0.000000
vn -0.000000 0.100000 -0.000000
usemtl Steel_-_Satin
f 1/1/1 2/2/2 4/3/3
f 4/3/3 2/2/2 3/4/4
f 28/5/5 5/6/6 27/7/7
f 27/7/7 5/6/6 6/8/8
f 27/7/7 6/8/8 26/9/9
f 26/9/9 6/8/8 7/10/10
f 26/9/9 7/10/10 25/11/11
f 25/11/11 7/10/10 8/12/12
f 25/11/11 8/12/12 24/13/13
f 24/13/13 8/12/12 9/14/14
f 24/13/13 9/14/14 23/15/15
f 23/15/15 9/14/14 10/16/16
f 23/15/15 10/16/16 22/17/17
f 22/17/17 10/16/16 11/18/18
f 22/17/17 11/18/18 21/19/19
f 21/19/19 11/18/18 12/20/20
f 21/19/19 12/20/20 20/21/21
f 20/21/21 12/20/20 13/22/22
f 20/21/21 13/22/22 19/23/23
f 19/23/23 13/22/22 14/24/24
f 19/23/23 14/24/24 18/25/25
f 18/25/25 14/24/24 15/26/26
f 18/25/25 15/26/26 17/27/27
f 17/27/27 15/26/26 16/28/28
f 17/27/27 16/28/28 4/29/29
f 4/29/29 16/28/28 1/30/30
f 29/31/31 5/32/6 30/33/32
f 30/33/32 5/32/6 28/34/5
f 2/35/33 29/36/34 3/37/35
f 3/37/35 29/36/34 30/38/36
f 3/39/37 30/40/38 4/41/39
f 4/41/39 30/40/38 22/42/40
f 4/41/39 22/42/40 21/43/41
f 30/40/38 28/44/42 22/42/40
f 22/42/40 28/44/42 23/45/43
f 23/45/43 28/44/42 24/46/44
f 24/46/44 28/44/42 25/47/45
f 25/47/45 28/44/42 26/48/46
f 26/48/46 28/44/42 27/49/47
f 21/43/41 20/50/48 4/41/39
f 4/41/39 20/50/48 19/51/49
f 4/41/39 19/51/49 18/52/50
f 18/52/50 17/53/51 4/41/39
f 2/54/52 1/55/53 29/56/54
f 29/56/54 1/55/53 11/57/55
f 29/56/54 11/57/55 5/58/56
f 5/58/56 11/57/55 10/59/57
f 5/58/56 10/59/57 9/60/58
f 16/61/59 15/62/60 1/55/53
f 1/55/53 15/62/60 14/63/61
f 1/55/53 14/63/61 13/64/62
f 13/64/62 12/65/63 1/55/53
f 1/55/53 12/65/63 11/57/55
f 9/60/58 8/66/64 5/58/56
f 5/58/56 8/66/64 7/67/65
f 5/58/56 7/67/65 6/68/66
# 30 vertices
# 68 texture params
# 66 normals
# 56 facets

# 1 groups
