# WaveFront *.obj file (generated by Autodesk ATF)

mtllib (Forearm) A.C.R.A. - SE (Stand Example) v2_(Forearm) A.C.R.A. - SE (Stand Example) v2_Body1_(Forearm) A.C.R.A. - SE (Stand Example) v3_Body6.mtl

g Body6

v -120.000002 51.000001 1.500000
v -120.000002 51.000001 0.000000
v -123.000002 51.000001 0.000000
v -123.000002 51.000001 1.500000
v -120.000002 37.000001 0.000000
v -120.000002 37.000001 1.500000
v -123.000002 37.000001 1.500000
v -123.000002 37.000001 0.000000
vt -0.200000 0.150000 0.000000
vt -0.500000 0.150000 0.000000
vt -0.200000 0.000000 0.000000
vt -0.500000 0.000000 0.000000
vt -1.200000 0.000000 0.000000
vt -0.900000 0.000000 0.000000
vt -1.200000 0.150000 0.000000
vt -0.900000 0.150000 0.000000
vt 0.150000 0.700000 0.000000
vt -0.150000 0.700000 0.000000
vt 0.150000 -0.700000 0.000000
vt -0.150000 -0.700000 0.000000
vt 1.500000 0.150000 0.000000
vt 0.100000 0.150000 0.000000
vt 1.500000 0.000000 0.000000
vt 0.100000 0.000000 0.000000
vt 0.100000 0.000000 0.000000
vt 1.500000 0.000000 0.000000
vt 0.100000 0.150000 0.000000
vt 1.500000 0.150000 0.000000
vt 0.150000 0.700000 0.000000
vt -0.150000 0.700000 0.000000
vt 0.150000 -0.700000 0.000000
vt -0.150000 -0.700000 0.000000
vn -0.000000 0.100000 -0.000000
vn -0.000000 0.100000 -0.000000
vn -0.000000 0.100000 -0.000000
vn -0.000000 0.100000 -0.000000
vn 0.000000 -0.100000 0.000000
vn 0.000000 -0.100000 0.000000
vn 0.000000 -0.100000 0.000000
vn 0.000000 -0.100000 0.000000
vn 0.000000 0.000000 0.100000
vn 0.000000 0.000000 0.100000
vn 0.000000 0.000000 0.100000
vn 0.000000 0.000000 0.100000
vn 0.100000 0.000000 0.000000
vn 0.100000 0.000000 0.000000
vn 0.100000 0.000000 0.000000
vn 0.100000 0.000000 0.000000
vn -0.100000 0.000000 0.000000
vn -0.100000 0.000000 0.000000
vn -0.100000 0.000000 0.000000
vn -0.100000 0.000000 0.000000
vn 0.000000 0.000000 -0.100000
vn 0.000000 0.000000 -0.100000
vn 0.000000 0.000000 -0.100000
vn 0.000000 0.000000 -0.100000
usemtl Steel_-_Satin
f 2/1/1 3/2/2 1/3/3
f 1/3/3 3/2/2 4/4/4
f 6/5/5 7/6/6 5/7/7
f 5/7/7 7/6/6 8/8/8
f 1/9/9 4/10/10 6/11/11
f 6/11/11 4/10/10 7/12/12
f 1/13/13 6/14/14 2/15/15
f 2/15/15 6/14/14 5/16/16
f 3/17/17 8/18/18 4/19/19
f 4/19/19 8/18/18 7/20/20
f 3/21/21 2/22/22 8/23/23
f 8/23/23 2/22/22 5/24/24
# 8 vertices
# 24 texture params
# 24 normals
# 12 facets

# 1 groups
