# WaveFront *.obj file (generated by Autodesk ATF)

mtllib (Forearm) A.C.R.A. - SE (Stand Example) v2_(Forearm) A.C.R.A. - SE (Stand Example) v2_Body1_(Forearm) A.C.R.A. - SE (Stand Example) v3_Body3.mtl

g Body3

v 100.000000 -2.000000 0.000000
v 99.824780 -2.000000 0.900969
v 99.487820 -2.000000 1.754729
v 99.000474 -2.000000 2.532509
v 98.379165 -2.000000 3.208099
v 97.644830 -2.000000 3.758735
v 96.822214 -2.000000 4.165860
v 95.939038 -2.000000 4.415755
v 95.025063 -2.000000 4.500000
v 95.025063 -10.000000 4.500000
v 95.939038 -10.000000 4.415755
v 96.822214 -10.000000 4.165860
v 97.644830 -10.000000 3.758735
v 98.379165 -10.000000 3.208099
v 99.000474 -10.000000 2.532509
v 99.487820 -10.000000 1.754729
v 99.824780 -10.000000 0.900969
v 100.000000 -10.000000 0.000000
v 95.250002 -10.000000 2.000000
v 95.207409 -10.000000 1.676476
v 95.082534 -10.000000 1.375000
v 94.883885 -10.000000 1.116117
v 94.625002 -10.000000 0.917468
v 94.323526 -10.000000 0.792593
v 94.000002 -10.000000 0.750000
v 93.676478 -10.000000 0.792593
v 93.375002 -10.000000 0.917468
v 93.116119 -10.000000 1.116117
v 92.917470 -10.000000 1.375000
v 92.792595 -10.000000 1.676476
v 92.750002 -10.000000 2.000000
v 92.792595 -10.000000 2.323524
v 92.917470 -10.000000 2.625000
v 93.116119 -10.000000 2.883884
v 93.375002 -10.000000 3.082532
v 93.676478 -10.000000 3.207407
v 94.000002 -10.000000 3.250000
v 94.323526 -10.000000 3.207407
v 94.625002 -10.000000 3.082532
v 94.883885 -10.000000 2.883884
v 95.082534 -10.000000 2.625000
v 95.207409 -10.000000 2.323524
v 92.974937 -10.000000 4.500000
v 92.060962 -10.000000 4.415755
v 91.177786 -10.000000 4.165860
v 90.355170 -10.000000 3.758735
v 89.620835 -10.000000 3.208099
v 88.999526 -10.000000 2.532509
v 88.512180 -10.000000 1.754729
v 88.175220 -10.000000 0.900969
v 88.000000 -10.000000 0.000000
v 92.974937 -2.000000 4.500000
v 92.060962 -2.000000 4.415755
v 91.177786 -2.000000 4.165860
v 90.355170 -2.000000 3.758735
v 89.620835 -2.000000 3.208099
v 88.999526 -2.000000 2.532509
v 88.512180 -2.000000 1.754729
v 88.175220 -2.000000 0.900969
v 88.000000 -2.000000 0.000000
v 95.250002 -2.000000 2.000000
v 95.207409 -2.000000 1.676476
v 95.082534 -2.000000 1.375000
v 94.883885 -2.000000 1.116117
v 94.625002 -2.000000 0.917468
v 94.323526 -2.000000 0.792593
v 94.000002 -2.000000 0.750000
v 93.676478 -2.000000 0.792593
v 93.375002 -2.000000 0.917468
v 93.116119 -2.000000 1.116117
v 92.917470 -2.000000 1.375000
v 92.792595 -2.000000 1.676476
v 92.750002 -2.000000 2.000000
v 92.792595 -2.000000 2.323524
v 92.917470 -2.000000 2.625000
v 93.116119 -2.000000 2.883884
v 93.375002 -2.000000 3.082532
v 93.676478 -2.000000 3.207407
v 94.000002 -2.000000 3.250000
v 94.323526 -2.000000 3.207407
v 94.625002 -2.000000 3.082532
v 94.883885 -2.000000 2.883884
v 95.082534 -2.000000 2.625000
v 95.207409 -2.000000 2.323524
v 95.250002 -6.000000 2.000000
v 95.207409 -6.000000 2.323524
v 95.082534 -6.000000 2.625000
v 94.883885 -6.000000 2.883884
v 94.625002 -6.000000 3.082532
v 94.323526 -6.000000 3.207407
v 94.000002 -6.000000 3.250000
v 93.676478 -6.000000 3.207407
v 93.375002 -6.000000 3.082532
v 93.116119 -6.000000 2.883884
v 92.917470 -6.000000 2.625000
v 92.792595 -6.000000 2.323524
v 92.750002 -6.000000 2.000000
v 92.792595 -6.000000 1.676476
v 92.917470 -6.000000 1.375000
v 93.116119 -6.000000 1.116117
v 93.375002 -6.000000 0.917468
v 93.676478 -6.000000 0.792593
v 94.000002 -6.000000 0.750000
v 94.323526 -6.000000 0.792593
v 94.625002 -6.000000 0.917468
v 94.883885 -6.000000 1.116117
v 95.082534 -6.000000 1.375000
v 95.207409 -6.000000 1.676476
vt -0.800000 0.000000 0.000000
vt -0.000000 0.000000 0.000000
vt -0.800000 0.091914 0.000000
vt -0.000000 0.091914 0.000000
vt -0.800000 0.183829 0.000000
vt -0.000000 0.183829 0.000000
vt -0.800000 0.275743 0.000000
vt -0.000000 0.275743 0.000000
vt -0.800000 0.367657 0.000000
vt -0.000000 0.367657 0.000000
vt -0.800000 0.459572 0.000000
vt -0.000000 0.459572 0.000000
vt -0.800000 0.551486 0.000000
vt -0.000000 0.551486 0.000000
vt -0.800000 0.643400 0.000000
vt -0.000000 0.643400 0.000000
vt -0.800000 0.735314 0.000000
vt -0.000000 0.735314 0.000000
vt 0.720741 0.167648 0.000000
vt 1.148782 0.175473 0.000000
vt 0.725000 0.200000 0.000000
vt 1.100047 0.253251 0.000000
vt 0.720741 0.232352 0.000000
vt 0.708253 0.262500 0.000000
vt 1.037916 0.320810 0.000000
vt 0.688389 0.288388 0.000000
vt 0.964483 0.375873 0.000000
vt 0.662500 0.308253 0.000000
vt 0.882221 0.416586 0.000000
vt 0.632353 0.320741 0.000000
vt 0.793904 0.441576 0.000000
vt 0.702506 0.450000 0.000000
vt 0.708253 0.137500 0.000000
vt 1.182478 0.090097 0.000000
vt 0.688389 0.111612 0.000000
vt 0.662500 0.091747 0.000000
vt 1.200000 0.000000 0.000000
vt 0.632353 0.079259 0.000000
vt 0.600000 0.075000 0.000000
vt 0.000000 0.000000 0.000000
vt 0.567648 0.079259 0.000000
vt 0.537500 0.091747 0.000000
vt 0.017522 0.090097 0.000000
vt 0.511612 0.111612 0.000000
vt 0.491747 0.137500 0.000000
vt 0.051218 0.175473 0.000000
vt 0.479259 0.167648 0.000000
vt 0.475000 0.200000 0.000000
vt 0.099953 0.253251 0.000000
vt 0.479259 0.232352 0.000000
vt 0.491747 0.262500 0.000000
vt 0.162084 0.320810 0.000000
vt 0.511612 0.288388 0.000000
vt 0.235517 0.375873 0.000000
vt 0.537500 0.308253 0.000000
vt 0.317779 0.416586 0.000000
vt 0.567648 0.320741 0.000000
vt 0.406096 0.441576 0.000000
vt 0.497494 0.450000 0.000000
vt 0.600000 0.325000 0.000000
vt 0.102506 0.400000 0.000000
vt -0.102506 0.400000 0.000000
vt 0.102506 -0.400000 0.000000
vt -0.102506 -0.400000 0.000000
vt -0.800000 0.000000 0.000000
vt -0.000000 0.000000 0.000000
vt -0.800000 0.091914 0.000000
vt -0.000000 0.091914 0.000000
vt -0.800000 0.183829 0.000000
vt -0.000000 0.183829 0.000000
vt -0.800000 0.275743 0.000000
vt -0.000000 0.275743 0.000000
vt -0.800000 0.367657 0.000000
vt -0.000000 0.367657 0.000000
vt -0.800000 0.459572 0.000000
vt -0.000000 0.459572 0.000000
vt -0.800000 0.551486 0.000000
vt -0.000000 0.551486 0.000000
vt -0.800000 0.643400 0.000000
vt -0.000000 0.643400 0.000000
vt -0.800000 0.735314 0.000000
vt -0.000000 0.735314 0.000000
vt 0.800000 -0.359974 0.000000
vt 0.400000 -0.359974 0.000000
vt 0.800000 -0.392699 0.000000
vt 0.400000 -0.392699 0.000000
vt 0.800000 0.392699 0.000000
vt 0.400000 0.392699 0.000000
vt 0.800000 0.359974 0.000000
vt 0.400000 0.359974 0.000000
vt 0.800000 0.327249 0.000000
vt 0.400000 0.327249 0.000000
vt 0.800000 0.294524 0.000000
vt 0.400000 0.294524 0.000000
vt 0.800000 0.261799 0.000000
vt 0.400000 0.261799 0.000000
vt 0.800000 0.229074 0.000000
vt 0.400000 0.229074 0.000000
vt 0.800000 0.196350 0.000000
vt 0.400000 0.196350 0.000000
vt 0.800000 0.163625 0.000000
vt 0.400000 0.163625 0.000000
vt 0.800000 0.130900 0.000000
vt 0.400000 0.130900 0.000000
vt 0.800000 0.098175 0.000000
vt 0.400000 0.098175 0.000000
vt 0.800000 0.065450 0.000000
vt 0.400000 0.065450 0.000000
vt 0.800000 0.032725 0.000000
vt 0.400000 0.032725 0.000000
vt 0.800000 0.000000 0.000000
vt 0.400000 0.000000 0.000000
vt 0.800000 -0.032725 0.000000
vt 0.400000 -0.032725 0.000000
vt 0.800000 -0.065450 0.000000
vt 0.400000 -0.065450 0.000000
vt 0.800000 -0.098175 0.000000
vt 0.400000 -0.098175 0.000000
vt 0.800000 -0.130900 0.000000
vt 0.400000 -0.130900 0.000000
vt 0.800000 -0.163625 0.000000
vt 0.400000 -0.163625 0.000000
vt 0.800000 -0.196350 0.000000
vt 0.400000 -0.196350 0.000000
vt 0.800000 -0.229074 0.000000
vt 0.400000 -0.229074 0.000000
vt 0.800000 -0.261799 0.000000
vt 0.400000 -0.261799 0.000000
vt 0.800000 -0.294524 0.000000
vt 0.400000 -0.294524 0.000000
vt 0.800000 -0.327249 0.000000
vt 0.400000 -0.327249 0.000000
vt 0.000000 0.359974 0.000000
vt 0.000000 0.392699 0.000000
vt 0.000000 -0.392699 0.000000
vt 0.000000 -0.359974 0.000000
vt 0.000000 -0.327249 0.000000
vt 0.000000 -0.294524 0.000000
vt 0.000000 -0.261799 0.000000
vt 0.000000 -0.229074 0.000000
vt 0.000000 -0.196350 0.000000
vt 0.000000 -0.163625 0.000000
vt 0.000000 -0.130900 0.000000
vt 0.000000 -0.098175 0.000000
vt 0.000000 -0.065450 0.000000
vt 0.000000 -0.032725 0.000000
vt 0.000000 0.000000 0.000000
vt -0.000000 0.032725 0.000000
vt -0.000000 0.065450 0.000000
vt 0.000000 0.098175 0.000000
vt -0.000000 0.130900 0.000000
vt 0.000000 0.163625 0.000000
vt 0.000000 0.196350 0.000000
vt 0.000000 0.229074 0.000000
vt 0.000000 0.261799 0.000000
vt 0.000000 0.294524 0.000000
vt 0.000000 0.327249 0.000000
vt 0.406096 0.441576 0.000000
vt 0.567647 0.320741 0.000000
vt 0.497494 0.450000 0.000000
vt 0.600000 0.325000 0.000000
vt 0.702506 0.450000 0.000000
vt 0.632352 0.320741 0.000000
vt 0.793904 0.441576 0.000000
vt 0.882221 0.416586 0.000000
vt 0.662500 0.308253 0.000000
vt 0.964483 0.375873 0.000000
vt 0.688388 0.288388 0.000000
vt 1.037916 0.320810 0.000000
vt 0.708253 0.262500 0.000000
vt 1.100047 0.253251 0.000000
vt 0.720741 0.232352 0.000000
vt 0.725000 0.200000 0.000000
vt 0.317779 0.416586 0.000000
vt 0.537500 0.308253 0.000000
vt 0.235517 0.375873 0.000000
vt 0.511611 0.288388 0.000000
vt 0.162084 0.320810 0.000000
vt 0.491747 0.262500 0.000000
vt 0.099953 0.253251 0.000000
vt 0.479259 0.232352 0.000000
vt 0.475000 0.200000 0.000000
vt 0.051218 0.175473 0.000000
vt 0.479259 0.167648 0.000000
vt 0.491747 0.137500 0.000000
vt 0.017522 0.090097 0.000000
vt 0.511611 0.111612 0.000000
vt 0.537500 0.091747 0.000000
vt -0.000000 0.000000 0.000000
vt 0.567647 0.079259 0.000000
vt 0.600000 0.075000 0.000000
vt 1.200000 0.000000 0.000000
vt 0.632352 0.079259 0.000000
vt 0.662500 0.091747 0.000000
vt 1.182478 0.090097 0.000000
vt 0.688388 0.111612 0.000000
vt 0.708253 0.137500 0.000000
vt 1.148782 0.175473 0.000000
vt 0.720741 0.167648 0.000000
vt 0.600000 0.400000 0.000000
vt -0.600000 0.400000 0.000000
vt 0.600000 -0.400000 0.000000
vt -0.600000 -0.400000 0.000000
vn 0.099499 0.000000 0.010000
vn 0.099499 0.000000 0.010000
vn 0.095994 0.000000 0.028019
vn 0.095994 0.000000 0.028019
vn 0.089255 0.000000 0.045095
vn 0.089255 0.000000 0.045095
vn 0.079508 0.000000 0.060650
vn 0.079508 0.000000 0.060650
vn 0.067082 0.000000 0.074162
vn 0.067082 0.000000 0.074162
vn 0.052395 0.000000 0.085175
vn 0.052395 0.000000 0.085175
vn 0.035943 0.000000 0.093317
vn 0.035943 0.000000 0.093317
vn 0.018280 0.000000 0.098315
vn 0.018280 0.000000 0.098315
vn -0.000000 0.000000 0.100000
vn -0.000000 0.000000 0.100000
vn 0.000000 -0.100000 0.000000
vn 0.000000 -0.100000 0.000000
vn 0.000000 -0.100000 0.000000
vn 0.000000 -0.100000 0.000000
vn 0.000000 -0.100000 0.000000
vn 0.000000 -0.100000 0.000000
vn 0.000000 -0.100000 0.000000
vn 0.000000 -0.100000 0.000000
vn 0.000000 -0.100000 0.000000
vn 0.000000 -0.100000 0.000000
vn 0.000000 -0.100000 0.000000
vn 0.000000 -0.100000 0.000000
vn 0.000000 -0.100000 0.000000
vn 0.000000 -0.100000 0.000000
vn 0.000000 -0.100000 0.000000
vn 0.000000 -0.100000 0.000000
vn 0.000000 -0.100000 0.000000
vn 0.000000 -0.100000 0.000000
vn 0.000000 -0.100000 0.000000
vn 0.000000 -0.100000 0.000000
vn 0.000000 -0.100000 0.000000
vn 0.000000 -0.100000 0.000000
vn 0.000000 -0.100000 0.000000
vn 0.000000 -0.100000 0.000000
vn 0.000000 -0.100000 0.000000
vn 0.000000 -0.100000 0.000000
vn 0.000000 -0.100000 0.000000
vn 0.000000 -0.100000 0.000000
vn 0.000000 -0.100000 0.000000
vn 0.000000 -0.100000 0.000000
vn 0.000000 -0.100000 0.000000
vn 0.000000 -0.100000 0.000000
vn 0.000000 -0.100000 0.000000
vn 0.000000 -0.100000 0.000000
vn 0.000000 -0.100000 0.000000
vn 0.000000 -0.100000 0.000000
vn 0.000000 -0.100000 0.000000
vn 0.000000 -0.100000 0.000000
vn 0.000000 -0.100000 0.000000
vn 0.000000 -0.100000 0.000000
vn 0.000000 -0.100000 0.000000
vn 0.000000 -0.100000 0.000000
vn 0.000000 0.000000 0.100000
vn 0.000000 0.000000 0.100000
vn -0.099499 0.000000 0.010000
vn -0.099499 0.000000 0.010000
vn -0.095994 0.000000 0.028019
vn -0.095994 0.000000 0.028019
vn -0.089255 0.000000 0.045095
vn -0.089255 0.000000 0.045095
vn -0.079508 0.000000 0.060650
vn -0.079508 0.000000 0.060650
vn -0.067082 0.000000 0.074162
vn -0.067082 0.000000 0.074162
vn -0.052395 0.000000 0.085175
vn -0.052395 0.000000 0.085175
vn -0.035943 0.000000 0.093317
vn -0.035943 0.000000 0.093317
vn -0.018280 0.000000 0.098315
vn -0.018280 0.000000 0.098315
vn -0.096593 0.000000 -0.025882
vn -0.096593 0.000000 -0.025882
vn -0.100000 0.000000 -0.000000
vn -0.100000 0.000000 -0.000000
vn -0.096593 0.000000 0.025882
vn -0.096593 0.000000 0.025882
vn -0.086603 0.000000 0.050000
vn -0.086603 0.000000 0.050000
vn -0.070711 0.000000 0.070711
vn -0.070711 0.000000 0.070711
vn -0.050000 0.000000 0.086603
vn -0.050000 0.000000 0.086603
vn -0.025882 0.000000 0.096593
vn -0.025882 0.000000 0.096593
vn 0.000000 0.000000 0.100000
vn 0.000000 0.000000 0.100000
vn 0.025882 0.000000 0.096593
vn 0.025882 0.000000 0.096593
vn 0.050000 0.000000 0.086603
vn 0.050000 0.000000 0.086603
vn 0.070711 0.000000 0.070711
vn 0.070711 0.000000 0.070711
vn 0.086603 0.000000 0.050000
vn 0.086603 0.000000 0.050000
vn 0.096593 0.000000 0.025882
vn 0.096593 0.000000 0.025882
vn 0.100000 0.000000 0.000000
vn 0.100000 0.000000 0.000000
vn 0.096593 0.000000 -0.025882
vn 0.096593 0.000000 -0.025882
vn 0.086603 0.000000 -0.050000
vn 0.086603 0.000000 -0.050000
vn 0.070711 0.000000 -0.070711
vn 0.070711 0.000000 -0.070711
vn 0.050000 0.000000 -0.086603
vn 0.050000 0.000000 -0.086603
vn 0.025882 0.000000 -0.096593
vn 0.025882 0.000000 -0.096593
vn 0.000000 0.000000 -0.100000
vn 0.000000 0.000000 -0.100000
vn -0.025882 0.000000 -0.096593
vn -0.025882 0.000000 -0.096593
vn -0.050000 0.000000 -0.086603
vn -0.050000 0.000000 -0.086603
vn -0.070711 0.000000 -0.070711
vn -0.070711 0.000000 -0.070711
vn -0.086603 0.000000 -0.050000
vn -0.086603 0.000000 -0.050000
vn -0.096593 0.000000 0.025882
vn -0.100000 0.000000 0.000000
vn -0.096593 0.000000 -0.025882
vn -0.086603 0.000000 -0.050000
vn -0.070711 0.000000 -0.070711
vn -0.050000 0.000000 -0.086603
vn -0.025882 0.000000 -0.096593
vn 0.000000 0.000000 -0.100000
vn 0.025882 0.000000 -0.096593
vn 0.050000 0.000000 -0.086603
vn 0.070711 0.000000 -0.070711
vn 0.086603 0.000000 -0.050000
vn 0.096593 0.000000 -0.025882
vn 0.100000 0.000000 0.000000
vn 0.096593 0.000000 0.025882
vn 0.086603 0.000000 0.050000
vn 0.070711 0.000000 0.070711
vn 0.050000 0.000000 0.086603
vn 0.025882 0.000000 0.096593
vn 0.000000 0.000000 0.100000
vn -0.025882 0.000000 0.096593
vn -0.050000 0.000000 0.086603
vn -0.070711 0.000000 0.070711
vn -0.086603 0.000000 0.050000
vn 0.000000 0.100000 0.000000
vn 0.000000 0.100000 0.000000
vn 0.000000 0.100000 0.000000
vn 0.000000 0.100000 0.000000
vn 0.000000 0.100000 0.000000
vn 0.000000 0.100000 0.000000
vn 0.000000 0.100000 0.000000
vn 0.000000 0.100000 0.000000
vn 0.000000 0.100000 0.000000
vn 0.000000 0.100000 0.000000
vn 0.000000 0.100000 0.000000
vn 0.000000 0.100000 0.000000
vn 0.000000 0.100000 0.000000
vn 0.000000 0.100000 0.000000
vn 0.000000 0.100000 0.000000
vn 0.000000 0.100000 0.000000
vn 0.000000 0.100000 0.000000
vn 0.000000 0.100000 0.000000
vn 0.000000 0.100000 0.000000
vn 0.000000 0.100000 0.000000
vn 0.000000 0.100000 0.000000
vn 0.000000 0.100000 0.000000
vn 0.000000 0.100000 0.000000
vn 0.000000 0.100000 0.000000
vn 0.000000 0.100000 0.000000
vn 0.000000 0.100000 0.000000
vn 0.000000 0.100000 0.000000
vn 0.000000 0.100000 0.000000
vn 0.000000 0.100000 0.000000
vn 0.000000 0.100000 0.000000
vn 0.000000 0.100000 0.000000
vn 0.000000 0.100000 0.000000
vn 0.000000 0.100000 0.000000
vn 0.000000 0.100000 0.000000
vn 0.000000 0.100000 0.000000
vn 0.000000 0.100000 0.000000
vn 0.000000 0.100000 0.000000
vn 0.000000 0.100000 0.000000
vn 0.000000 0.100000 0.000000
vn 0.000000 0.100000 0.000000
vn 0.000000 0.100000 0.000000
vn 0.000000 0.100000 0.000000
vn 0.000000 0.000000 -0.100000
vn 0.000000 0.000000 -0.100000
vn 0.000000 0.000000 -0.100000
vn 0.000000 0.000000 -0.100000
usemtl Steel_-_Satin
f 18/1/1 1/2/2 17/3/3
f 17/3/3 1/2/2 2/4/4
f 17/3/3 2/4/4 16/5/5
f 16/5/5 2/4/4 3/6/6
f 16/5/5 3/6/6 15/7/7
f 15/7/7 3/6/6 4/8/8
f 15/7/7 4/8/8 14/9/9
f 14/9/9 4/8/8 5/10/10
f 14/9/9 5/10/10 13/11/11
f 13/11/11 5/10/10 6/12/12
f 13/11/11 6/12/12 12/13/13
f 12/13/13 6/12/12 7/14/14
f 12/13/13 7/14/14 11/15/15
f 11/15/15 7/14/14 8/16/16
f 11/15/15 8/16/16 10/17/17
f 10/17/17 8/16/16 9/18/18
f 20/19/19 16/20/20 19/21/21
f 19/21/21 16/20/20 15/22/22
f 19/21/21 15/22/22 42/23/23
f 42/23/23 15/22/22 41/24/24
f 41/24/24 15/22/22 14/25/25
f 41/24/24 14/25/25 40/26/26
f 40/26/26 14/25/25 13/27/27
f 40/26/26 13/27/27 39/28/28
f 39/28/28 13/27/27 12/29/29
f 39/28/28 12/29/29 38/30/30
f 38/30/30 12/29/29 11/31/31
f 38/30/30 11/31/31 10/32/32
f 20/19/19 21/33/33 16/20/20
f 16/20/20 21/33/33 17/34/34
f 17/34/34 21/33/33 22/35/35
f 17/34/34 22/35/35 23/36/36
f 17/34/34 23/36/36 18/37/37
f 18/37/37 23/36/36 24/38/38
f 18/37/37 24/38/38 25/39/39
f 18/37/37 25/39/39 51/40/40
f 51/40/40 25/39/39 26/41/41
f 51/40/40 26/41/41 27/42/42
f 51/40/40 27/42/42 50/43/43
f 50/43/43 27/42/42 28/44/44
f 50/43/43 28/44/44 29/45/45
f 50/43/43 29/45/45 49/46/46
f 49/46/46 29/45/45 30/47/47
f 49/46/46 30/47/47 31/48/48
f 49/46/46 31/48/48 48/49/49
f 48/49/49 31/48/48 32/50/50
f 48/49/49 32/50/50 33/51/51
f 48/49/49 33/51/51 47/52/52
f 47/52/52 33/51/51 34/53/53
f 47/52/52 34/53/53 46/54/54
f 46/54/54 34/53/53 35/55/55
f 46/54/54 35/55/55 45/56/56
f 45/56/56 35/55/55 36/57/57
f 45/56/56 36/57/57 44/58/58
f 44/58/58 36/57/57 43/59/59
f 43/59/59 36/57/57 37/60/60
f 43/59/59 37/60/60 10/32/32
f 10/32/32 37/60/60 38/30/30
f 9/61/18 52/62/61 10/63/17
f 10/63/17 52/62/61 43/64/62
f 60/65/63 51/66/64 59/67/65
f 59/67/65 51/66/64 50/68/66
f 59/67/65 50/68/66 58/69/67
f 58/69/67 50/68/66 49/70/68
f 58/69/67 49/70/68 57/71/69
f 57/71/69 49/70/68 48/72/70
f 57/71/69 48/72/70 56/73/71
f 56/73/71 48/72/70 47/74/72
f 56/73/71 47/74/72 55/75/73
f 55/75/73 47/74/72 46/76/74
f 55/75/73 46/76/74 54/77/75
f 54/77/75 46/76/74 45/78/76
f 54/77/75 45/78/76 53/79/77
f 53/79/77 45/78/76 44/80/78
f 53/79/77 44/80/78 52/81/61
f 52/81/61 44/80/78 43/82/62
f 42/83/79 86/84/80 19/85/81
f 19/85/81 86/84/80 85/86/82
f 19/87/81 85/88/82 20/89/83
f 20/89/83 85/88/82 108/90/84
f 20/89/83 108/90/84 21/91/85
f 21/91/85 108/90/84 107/92/86
f 21/91/85 107/92/86 22/93/87
f 22/93/87 107/92/86 106/94/88
f 22/93/87 106/94/88 23/95/89
f 23/95/89 106/94/88 105/96/90
f 23/95/89 105/96/90 24/97/91
f 24/97/91 105/96/90 104/98/92
f 24/97/91 104/98/92 25/99/93
f 25/99/93 104/98/92 103/100/94
f 25/99/93 103/100/94 26/101/95
f 26/101/95 103/100/94 102/102/96
f 26/101/95 102/102/96 27/103/97
f 27/103/97 102/102/96 101/104/98
f 27/103/97 101/104/98 28/105/99
f 28/105/99 101/104/98 100/106/100
f 28/105/99 100/106/100 29/107/101
f 29/107/101 100/106/100 99/108/102
f 29/107/101 99/108/102 30/109/103
f 30/109/103 99/108/102 98/110/104
f 30/109/103 98/110/104 31/111/105
f 31/111/105 98/110/104 97/112/106
f 31/111/105 97/112/106 32/113/107
f 32/113/107 97/112/106 96/114/108
f 32/113/107 96/114/108 33/115/109
f 33/115/109 96/114/108 95/116/110
f 33/115/109 95/116/110 34/117/111
f 34/117/111 95/116/110 94/118/112
f 34/117/111 94/118/112 35/119/113
f 35/119/113 94/118/112 93/120/114
f 35/119/113 93/120/114 36/121/115
f 36/121/115 93/120/114 92/122/116
f 36/121/115 92/122/116 37/123/117
f 37/123/117 92/122/116 91/124/118
f 37/123/117 91/124/118 38/125/119
f 38/125/119 91/124/118 90/126/120
f 38/125/119 90/126/120 39/127/121
f 39/127/121 90/126/120 89/128/122
f 39/127/121 89/128/122 40/129/123
f 40/129/123 89/128/122 88/130/124
f 40/129/123 88/130/124 41/131/125
f 41/131/125 88/130/124 87/132/126
f 41/131/125 87/132/126 42/83/79
f 42/83/79 87/132/126 86/84/80
f 62/133/127 108/90/84 61/134/128
f 61/134/128 108/90/84 85/88/82
f 61/135/128 85/86/82 84/136/129
f 84/136/129 85/86/82 86/84/80
f 84/136/129 86/84/80 83/137/130
f 83/137/130 86/84/80 87/132/126
f 83/137/130 87/132/126 82/138/131
f 82/138/131 87/132/126 88/130/124
f 82/138/131 88/130/124 81/139/132
f 81/139/132 88/130/124 89/128/122
f 81/139/132 89/128/122 80/140/133
f 80/140/133 89/128/122 90/126/120
f 80/140/133 90/126/120 79/141/134
f 79/141/134 90/126/120 91/124/118
f 79/141/134 91/124/118 78/142/135
f 78/142/135 91/124/118 92/122/116
f 78/142/135 92/122/116 77/143/136
f 77/143/136 92/122/116 93/120/114
f 77/143/136 93/120/114 76/144/137
f 76/144/137 93/120/114 94/118/112
f 76/144/137 94/118/112 75/145/138
f 75/145/138 94/118/112 95/116/110
f 75/145/138 95/116/110 74/146/139
f 74/146/139 95/116/110 96/114/108
f 74/146/139 96/114/108 73/147/140
f 73/147/140 96/114/108 97/112/106
f 73/147/140 97/112/106 72/148/141
f 72/148/141 97/112/106 98/110/104
f 72/148/141 98/110/104 71/149/142
f 71/149/142 98/110/104 99/108/102
f 71/149/142 99/108/102 70/150/143
f 70/150/143 99/108/102 100/106/100
f 70/150/143 100/106/100 69/151/144
f 69/151/144 100/106/100 101/104/98
f 69/151/144 101/104/98 68/152/145
f 68/152/145 101/104/98 102/102/96
f 68/152/145 102/102/96 67/153/146
f 67/153/146 102/102/96 103/100/94
f 67/153/146 103/100/94 66/154/147
f 66/154/147 103/100/94 104/98/92
f 66/154/147 104/98/92 65/155/148
f 65/155/148 104/98/92 105/96/90
f 65/155/148 105/96/90 64/156/149
f 64/156/149 105/96/90 106/94/88
f 64/156/149 106/94/88 63/157/150
f 63/157/150 106/94/88 107/92/86
f 63/157/150 107/92/86 62/133/127
f 62/133/127 107/92/86 108/90/84
f 8/158/151 80/159/152 9/160/153
f 9/160/153 80/159/152 79/161/154
f 9/160/153 79/161/154 52/162/155
f 52/162/155 79/161/154 78/163/156
f 52/162/155 78/163/156 53/164/157
f 53/164/157 78/163/156 54/165/158
f 54/165/158 78/163/156 77/166/159
f 54/165/158 77/166/159 55/167/160
f 55/167/160 77/166/159 76/168/161
f 55/167/160 76/168/161 56/169/162
f 56/169/162 76/168/161 75/170/163
f 56/169/162 75/170/163 57/171/164
f 57/171/164 75/170/163 74/172/165
f 57/171/164 74/172/165 73/173/166
f 8/158/151 7/174/167 80/159/152
f 80/159/152 7/174/167 81/175/168
f 81/175/168 7/174/167 6/176/169
f 81/175/168 6/176/169 82/177/170
f 82/177/170 6/176/169 5/178/171
f 82/177/170 5/178/171 83/179/172
f 83/179/172 5/178/171 4/180/173
f 83/179/172 4/180/173 84/181/174
f 84/181/174 4/180/173 61/182/175
f 61/182/175 4/180/173 3/183/176
f 61/182/175 3/183/176 62/184/177
f 62/184/177 3/183/176 63/185/178
f 63/185/178 3/183/176 2/186/179
f 63/185/178 2/186/179 64/187/180
f 64/187/180 2/186/179 65/188/181
f 65/188/181 2/186/179 1/189/182
f 65/188/181 1/189/182 66/190/183
f 66/190/183 1/189/182 67/191/184
f 67/191/184 1/189/182 60/192/185
f 67/191/184 60/192/185 68/193/186
f 68/193/186 60/192/185 69/194/187
f 69/194/187 60/192/185 59/195/188
f 69/194/187 59/195/188 70/196/189
f 70/196/189 59/195/188 71/197/190
f 71/197/190 59/195/188 58/198/191
f 71/197/190 58/198/191 72/199/192
f 72/199/192 58/198/191 73/173/166
f 73/173/166 58/198/191 57/171/164
f 60/200/193 1/201/194 51/202/195
f 51/202/195 1/201/194 18/203/196
# 108 vertices
# 203 texture params
# 196 normals
# 216 facets

# 1 groups
